# xmcd
#
# Track frame offsets: 
#        150
#        34650
#        80325
#        100272
#        124497
#        138950
#        159600
#        180900
#        207072
#        249150
#
# Disc length: 4076 seconds
#
# Revision: 6
# Processed by: cddbd v1.5.2PL0 Copyright (c) Steve Scherf et al.
# Submitted via: ExactAudioCopy v1.3
#
DISCID=780fea0a
DTITLE=Huelgas Ensemble, Paul Van Nevel - Vivarte 2-54 - Festa - Magni
DTITLE=ficat, Mass parts, Motets, Madrigals
DYEAR=1993
DGENRE=Vocal
TTITLE0=Super Flumina Babylonis
TTITLE1=Missa ''Se congie pris'' - a. Kyrie - b. Gloria
TTITLE2=Constantia'l vo' pur dire
TTITLE3=E' morta la speranza
TTITLE4=Quando ritrovo la mia pastorella
TTITLE5=Madonna oymè
TTITLE6=Chi vuol veder
TTITLE7=Quis dabit oculis
TTITLE8=Tribus miraculis
TTITLE9=Magnificat septimi toni
EXTD=SONY SK 53 116 YEAR: 1993
EXTT0=
EXTT1=
EXTT2=
EXTT3=
EXTT4=
EXTT5=
EXTT6=
EXTT7=
EXTT8=
EXTT9=
PLAYORDER=
